<svg width="245" height="155" viewBox="0 0 245 155" fill="none" xmlns="http://www.w3.org/2000/svg">
<g filter="url(#filter0_f_16_104)">
<path d="M71 18L73.4484 139.767L93.2011 19.5879L78.2952 140.464L114.95 24.3191L82.9936 141.844L135.805 32.0974L87.4478 143.878L155.34 42.7645L91.5672 146.525L173.158 56.1031L95.2679 149.732L188.897 71.8417L98.4746 153.433L202.236 89.66L101.122 157.552L212.903 109.195L103.156 162.006L220.681 130.05L104.536 166.705L225.412 151.799L105.233 171.552L227 174L105.233 176.448L225.412 196.201L104.536 181.295L220.681 217.95L103.156 185.994L212.903 238.805L101.122 190.448L202.236 258.34L98.4746 194.567L188.897 276.158L95.2679 198.268L173.158 291.897L91.5672 201.475L155.34 305.236L87.4478 204.122L135.805 315.903L82.9936 206.156L114.95 323.681L78.2952 207.536L93.2011 328.412L73.4484 208.233L71 330L68.5516 208.233L48.7989 328.412L63.7048 207.536L27.0497 323.681L59.0064 206.156L6.19526 315.903L54.5522 204.122L-13.34 305.236L50.4328 201.475L-31.1583 291.897L46.7321 198.268L-46.8969 276.158L43.5254 194.567L-60.2355 258.34L40.8781 190.448L-70.9026 238.805L38.8439 185.994L-78.6809 217.95L37.4643 181.295L-83.4121 196.201L36.7674 176.448L-85 174L36.7674 171.552L-83.4121 151.799L37.4643 166.705L-78.6809 130.05L38.8439 162.006L-70.9026 109.195L40.8781 157.552L-60.2355 89.66L43.5254 153.433L-46.8969 71.8417L46.7321 149.732L-31.1583 56.1031L50.4328 146.525L-13.34 42.7645L54.5522 143.878L6.19526 32.0974L59.0064 141.844L27.0497 24.3191L63.7048 140.464L48.7989 19.5879L68.5516 139.767L71 18Z" fill="#EDEAE2"/>
</g>
<path d="M71 18L73.4484 139.767L93.2011 19.5879L78.2952 140.464L114.95 24.3191L82.9936 141.844L135.805 32.0974L87.4478 143.878L155.34 42.7645L91.5672 146.525L173.158 56.1031L95.2679 149.732L188.897 71.8417L98.4746 153.433L202.236 89.66L101.122 157.552L212.903 109.195L103.156 162.006L220.681 130.05L104.536 166.705L225.412 151.799L105.233 171.552L227 174L105.233 176.448L225.412 196.201L104.536 181.295L220.681 217.95L103.156 185.994L212.903 238.805L101.122 190.448L202.236 258.34L98.4746 194.567L188.897 276.158L95.2679 198.268L173.158 291.897L91.5672 201.475L155.34 305.236L87.4478 204.122L135.805 315.903L82.9936 206.156L114.95 323.681L78.2952 207.536L93.2011 328.412L73.4484 208.233L71 330L68.5516 208.233L48.7989 328.412L63.7048 207.536L27.0497 323.681L59.0064 206.156L6.19526 315.903L54.5522 204.122L-13.34 305.236L50.4328 201.475L-31.1583 291.897L46.7321 198.268L-46.8969 276.158L43.5254 194.567L-60.2355 258.34L40.8781 190.448L-70.9026 238.805L38.8439 185.994L-78.6809 217.95L37.4643 181.295L-83.4121 196.201L36.7674 176.448L-85 174L36.7674 171.552L-83.4121 151.799L37.4643 166.705L-78.6809 130.05L38.8439 162.006L-70.9026 109.195L40.8781 157.552L-60.2355 89.66L43.5254 153.433L-46.8969 71.8417L46.7321 149.732L-31.1583 56.1031L50.4328 146.525L-13.34 42.7645L54.5522 143.878L6.19526 32.0974L59.0064 141.844L27.0497 24.3191L63.7048 140.464L48.7989 19.5879L68.5516 139.767L71 18Z" fill="#EDEAE2"/>
<defs>
<filter id="filter0_f_16_104" x="-102.7" y="0.299999" width="347.4" height="347.4" filterUnits="userSpaceOnUse" color-interpolation-filters="sRGB">
<feFlood flood-opacity="0" result="BackgroundImageFix"/>
<feBlend mode="normal" in="SourceGraphic" in2="BackgroundImageFix" result="shape"/>
<feGaussianBlur stdDeviation="8.85" result="effect1_foregroundBlur_16_104"/>
</filter>
</defs>
</svg>
